<?xml version="1.0" encoding="UTF-8" standalone="no"?>
<!DOCTYPE svg PUBLIC "-//W3C//DTD SVG 1.1//EN"
 "http://www.w3.org/Graphics/SVG/1.1/DTD/svg11.dtd">
<!-- Generated by graphviz version 8.0.4 (20230421.1958)
 -->
<!-- Pages: 1 -->
<svg width="801pt" height="398pt"
 viewBox="0.00 0.00 800.53 398.00" xmlns="http://www.w3.org/2000/svg" xmlns:xlink="http://www.w3.org/1999/xlink">
<g id="graph0" class="graph" transform="scale(1 1) rotate(0) translate(4 394)">
<polygon fill="white" stroke="none" points="-4,4 -4,-394 796.53,-394 796.53,4 -4,4"/>
<!-- 0 -->
<g id="node1" class="node">
<title>0</title>
<ellipse fill="none" stroke="black" cx="395.51" cy="-372" rx="170.09" ry="18"/>
<text text-anchor="middle" x="395.51" y="-366.95" font-family="Times,serif" font-size="14.00">0 &#45;&gt; {((3, 6), &#39;B&#39;, True), ((1, 6), &#39;A&#39;, True)}</text>
</g>
<!-- 1 -->
<g id="node2" class="node">
<title>1</title>
<ellipse fill="none" stroke="black" cx="395.51" cy="-283.5" rx="170.09" ry="18"/>
<text text-anchor="middle" x="395.51" y="-278.45" font-family="Times,serif" font-size="14.00">1 &#45;&gt; {((3, 6), &#39;B&#39;, True), ((1, 6), &#39;A&#39;, True)}</text>
</g>
<!-- 0&#45;&gt;1 -->
<g id="edge13" class="edge">
<title>0&#45;&gt;1</title>
<path fill="none" stroke="black" d="M395.51,-353.91C395.51,-342.14 395.51,-326.23 395.51,-312.61"/>
<polygon fill="black" stroke="black" points="399.01,-312.85 395.51,-302.85 392.01,-312.85 399.01,-312.85"/>
<text text-anchor="middle" x="420.26" y="-322.7" font-family="Times,serif" font-size="14.00">Move(E)</text>
</g>
<!-- 3 -->
<g id="node11" class="node">
<title>3</title>
<ellipse fill="none" stroke="black" cx="105.51" cy="-283.5" rx="101.51" ry="18"/>
<text text-anchor="middle" x="105.51" y="-278.45" font-family="Times,serif" font-size="14.00">3 &#45;&gt; {((3, 6), &#39;B&#39;, True)}</text>
</g>
<!-- 0&#45;&gt;3 -->
<g id="edge15" class="edge">
<title>0&#45;&gt;3</title>
<path fill="none" stroke="black" d="M340.28,-354.53C290.47,-339.67 217.35,-317.86 165.98,-302.54"/>
<polygon fill="black" stroke="black" points="167.27,-298.97 156.69,-299.47 165.27,-305.68 167.27,-298.97"/>
<text text-anchor="middle" x="299.88" y="-322.7" font-family="Times,serif" font-size="14.00">Move(S)</text>
</g>
<!-- 2 -->
<g id="node12" class="node">
<title>2</title>
<ellipse fill="none" stroke="black" cx="685.51" cy="-283.5" rx="102.02" ry="18"/>
<text text-anchor="middle" x="685.51" y="-278.45" font-family="Times,serif" font-size="14.00">2 &#45;&gt; {((1, 6), &#39;A&#39;, True)}</text>
</g>
<!-- 0&#45;&gt;2 -->
<g id="edge17" class="edge">
<title>0&#45;&gt;2</title>
<path fill="none" stroke="black" d="M450.74,-354.53C500.55,-339.67 573.67,-317.86 625.04,-302.54"/>
<polygon fill="black" stroke="black" points="625.75,-305.68 634.33,-299.47 623.75,-298.97 625.75,-305.68"/>
<text text-anchor="middle" x="591.01" y="-322.7" font-family="Times,serif" font-size="14.00">Move(N)</text>
</g>
<!-- 6 -->
<g id="node3" class="node">
<title>6</title>
<ellipse fill="none" stroke="black" cx="105.51" cy="-195" rx="101.51" ry="18"/>
<text text-anchor="middle" x="105.51" y="-189.95" font-family="Times,serif" font-size="14.00">6 &#45;&gt; {((3, 6), &#39;B&#39;, True)}</text>
</g>
<!-- 1&#45;&gt;6 -->
<g id="edge3" class="edge">
<title>1&#45;&gt;6</title>
<path fill="none" stroke="black" d="M340.28,-266.03C290.47,-251.17 217.35,-229.36 165.98,-214.04"/>
<polygon fill="black" stroke="black" points="167.27,-210.47 156.69,-210.97 165.27,-217.18 167.27,-210.47"/>
<text text-anchor="middle" x="299.88" y="-234.2" font-family="Times,serif" font-size="14.00">Move(S)</text>
</g>
<!-- 7 -->
<g id="node6" class="node">
<title>7</title>
<ellipse fill="none" stroke="black" cx="395.51" cy="-195" rx="170.09" ry="18"/>
<text text-anchor="middle" x="395.51" y="-189.95" font-family="Times,serif" font-size="14.00">7 &#45;&gt; {((3, 6), &#39;B&#39;, True), ((1, 6), &#39;A&#39;, True)}</text>
</g>
<!-- 1&#45;&gt;7 -->
<g id="edge10" class="edge">
<title>1&#45;&gt;7</title>
<path fill="none" stroke="black" d="M395.51,-265.41C395.51,-253.64 395.51,-237.73 395.51,-224.11"/>
<polygon fill="black" stroke="black" points="399.01,-224.35 395.51,-214.35 392.01,-224.35 399.01,-224.35"/>
<text text-anchor="middle" x="420.26" y="-234.2" font-family="Times,serif" font-size="14.00">Move(E)</text>
</g>
<!-- 5 -->
<g id="node10" class="node">
<title>5</title>
<ellipse fill="none" stroke="black" cx="685.51" cy="-195" rx="102.02" ry="18"/>
<text text-anchor="middle" x="685.51" y="-189.95" font-family="Times,serif" font-size="14.00">5 &#45;&gt; {((1, 6), &#39;A&#39;, True)}</text>
</g>
<!-- 1&#45;&gt;5 -->
<g id="edge12" class="edge">
<title>1&#45;&gt;5</title>
<path fill="none" stroke="black" d="M450.74,-266.03C500.55,-251.17 573.67,-229.36 625.04,-214.04"/>
<polygon fill="black" stroke="black" points="625.75,-217.18 634.33,-210.97 623.75,-210.47 625.75,-217.18"/>
<text text-anchor="middle" x="591.01" y="-234.2" font-family="Times,serif" font-size="14.00">Move(N)</text>
</g>
<!-- 9 -->
<g id="node4" class="node">
<title>9</title>
<ellipse fill="none" stroke="black" cx="101.51" cy="-106.5" rx="101.51" ry="18"/>
<text text-anchor="middle" x="101.51" y="-101.45" font-family="Times,serif" font-size="14.00">9 &#45;&gt; {((3, 6), &#39;B&#39;, True)}</text>
</g>
<!-- 6&#45;&gt;9 -->
<g id="edge2" class="edge">
<title>6&#45;&gt;9</title>
<path fill="none" stroke="black" d="M104.72,-176.91C104.17,-165.14 103.44,-149.23 102.81,-135.61"/>
<polygon fill="black" stroke="black" points="106.27,-135.68 102.31,-125.85 99.28,-136 106.27,-135.68"/>
<text text-anchor="middle" x="129.26" y="-145.7" font-family="Times,serif" font-size="14.00">Move(E)</text>
</g>
<!-- 15 -->
<g id="node5" class="node">
<title>15</title>
<ellipse fill="none" stroke="black" cx="231.51" cy="-18" rx="106.11" ry="18"/>
<text text-anchor="middle" x="231.51" y="-12.95" font-family="Times,serif" font-size="14.00">15 &#45;&gt; {((3, 6), &#39;B&#39;, True)}</text>
</g>
<!-- 9&#45;&gt;15 -->
<g id="edge1" class="edge">
<title>9&#45;&gt;15</title>
<path fill="none" stroke="black" d="M126.88,-88.62C146.93,-75.28 175.1,-56.54 197.16,-41.86"/>
<polygon fill="black" stroke="black" points="198.81,-44.29 205.2,-35.84 194.93,-38.47 198.81,-44.29"/>
<text text-anchor="middle" x="206.26" y="-57.2" font-family="Times,serif" font-size="14.00">Push(E,E)</text>
</g>
<!-- 7&#45;&gt;9 -->
<g id="edge4" class="edge">
<title>7&#45;&gt;9</title>
<path fill="none" stroke="black" d="M339.52,-177.53C289.02,-162.67 214.89,-140.86 162.81,-125.54"/>
<polygon fill="black" stroke="black" points="163.96,-121.93 153.38,-122.47 161.98,-128.65 163.96,-121.93"/>
<text text-anchor="middle" x="298.88" y="-145.7" font-family="Times,serif" font-size="14.00">Move(S)</text>
</g>
<!-- 10 -->
<g id="node7" class="node">
<title>10</title>
<ellipse fill="none" stroke="black" cx="395.51" cy="-106.5" rx="174.7" ry="18"/>
<text text-anchor="middle" x="395.51" y="-101.45" font-family="Times,serif" font-size="14.00">10 &#45;&gt; {((3, 6), &#39;B&#39;, True), ((1, 6), &#39;A&#39;, True)}</text>
</g>
<!-- 7&#45;&gt;10 -->
<g id="edge7" class="edge">
<title>7&#45;&gt;10</title>
<path fill="none" stroke="black" d="M395.51,-176.91C395.51,-165.14 395.51,-149.23 395.51,-135.61"/>
<polygon fill="black" stroke="black" points="399.01,-135.85 395.51,-125.85 392.01,-135.85 399.01,-135.85"/>
<text text-anchor="middle" x="420.26" y="-145.7" font-family="Times,serif" font-size="14.00">Move(E)</text>
</g>
<!-- 8 -->
<g id="node9" class="node">
<title>8</title>
<ellipse fill="none" stroke="black" cx="690.51" cy="-106.5" rx="102.02" ry="18"/>
<text text-anchor="middle" x="690.51" y="-101.45" font-family="Times,serif" font-size="14.00">8 &#45;&gt; {((1, 6), &#39;A&#39;, True)}</text>
</g>
<!-- 7&#45;&gt;8 -->
<g id="edge9" class="edge">
<title>7&#45;&gt;8</title>
<path fill="none" stroke="black" d="M451.34,-177.63C501.97,-162.78 576.48,-140.93 628.85,-125.58"/>
<polygon fill="black" stroke="black" points="629.73,-128.68 638.34,-122.5 627.76,-121.96 629.73,-128.68"/>
<text text-anchor="middle" x="594.01" y="-145.7" font-family="Times,serif" font-size="14.00">Move(N)</text>
</g>
<!-- 10&#45;&gt;15 -->
<g id="edge5" class="edge">
<title>10&#45;&gt;15</title>
<path fill="none" stroke="black" d="M363.11,-88.41C337.14,-74.71 300.54,-55.41 272.53,-40.63"/>
<polygon fill="black" stroke="black" points="274.48,-37.18 264.01,-35.61 271.22,-43.37 274.48,-37.18"/>
<text text-anchor="middle" x="354.88" y="-57.2" font-family="Times,serif" font-size="14.00">Push(S,E)</text>
</g>
<!-- 12 -->
<g id="node8" class="node">
<title>12</title>
<ellipse fill="none" stroke="black" cx="463.51" cy="-18" rx="106.63" ry="18"/>
<text text-anchor="middle" x="463.51" y="-12.95" font-family="Times,serif" font-size="14.00">12 &#45;&gt; {((1, 6), &#39;A&#39;, True)}</text>
</g>
<!-- 10&#45;&gt;12 -->
<g id="edge6" class="edge">
<title>10&#45;&gt;12</title>
<path fill="none" stroke="black" d="M408.94,-88.41C418.82,-75.85 432.39,-58.58 443.53,-44.41"/>
<polygon fill="black" stroke="black" points="446.67,-47.08 450.1,-37.05 441.17,-42.75 446.67,-47.08"/>
<text text-anchor="middle" x="464.01" y="-57.2" font-family="Times,serif" font-size="14.00">Push(N,E)</text>
</g>
<!-- 8&#45;&gt;12 -->
<g id="edge8" class="edge">
<title>8&#45;&gt;12</title>
<path fill="none" stroke="black" d="M648.87,-89.63C611.31,-75.32 555.91,-54.21 515.47,-38.8"/>
<polygon fill="black" stroke="black" points="516.85,-35.2 506.26,-34.91 514.36,-41.74 516.85,-35.2"/>
<text text-anchor="middle" x="624.26" y="-57.2" font-family="Times,serif" font-size="14.00">Push(E,E)</text>
</g>
<!-- 5&#45;&gt;8 -->
<g id="edge11" class="edge">
<title>5&#45;&gt;8</title>
<path fill="none" stroke="black" d="M686.5,-176.91C687.18,-165.14 688.1,-149.23 688.88,-135.61"/>
<polygon fill="black" stroke="black" points="692.42,-136.04 689.51,-125.85 685.43,-135.63 692.42,-136.04"/>
<text text-anchor="middle" x="712.26" y="-145.7" font-family="Times,serif" font-size="14.00">Move(E)</text>
</g>
<!-- 3&#45;&gt;6 -->
<g id="edge14" class="edge">
<title>3&#45;&gt;6</title>
<path fill="none" stroke="black" d="M105.51,-265.41C105.51,-253.64 105.51,-237.73 105.51,-224.11"/>
<polygon fill="black" stroke="black" points="109.01,-224.35 105.51,-214.35 102.01,-224.35 109.01,-224.35"/>
<text text-anchor="middle" x="130.26" y="-234.2" font-family="Times,serif" font-size="14.00">Move(E)</text>
</g>
<!-- 2&#45;&gt;5 -->
<g id="edge16" class="edge">
<title>2&#45;&gt;5</title>
<path fill="none" stroke="black" d="M685.51,-265.41C685.51,-253.64 685.51,-237.73 685.51,-224.11"/>
<polygon fill="black" stroke="black" points="689.01,-224.35 685.51,-214.35 682.01,-224.35 689.01,-224.35"/>
<text text-anchor="middle" x="710.26" y="-234.2" font-family="Times,serif" font-size="14.00">Move(E)</text>
</g>
</g>
</svg>
