<?xml version="1.0" encoding="UTF-8" standalone="no"?>
<!DOCTYPE svg PUBLIC "-//W3C//DTD SVG 1.1//EN"
 "http://www.w3.org/Graphics/SVG/1.1/DTD/svg11.dtd">
<!-- Generated by graphviz version 2.50.0 (0)
 -->
<!-- Pages: 1 -->
<svg width="767pt" height="392pt"
 viewBox="0.00 0.00 767.33 392.00" xmlns="http://www.w3.org/2000/svg" xmlns:xlink="http://www.w3.org/1999/xlink">
<g id="graph0" class="graph" transform="scale(1 1) rotate(0) translate(4 388)">
<polygon fill="white" stroke="transparent" points="-4,4 -4,-388 763.33,-388 763.33,4 -4,4"/>
<!-- 0 -->
<g id="node1" class="node">
<title>0</title>
<ellipse fill="none" stroke="black" cx="378.84" cy="-366" rx="162.47" ry="18"/>
<text text-anchor="middle" x="378.84" y="-362.3" font-family="Times New Roman,serif" font-size="14.00">0 &#45;&gt; {((3, 6), &#39;B&#39;, True), ((1, 6), &#39;A&#39;, True)}</text>
</g>
<!-- 1 -->
<g id="node2" class="node">
<title>1</title>
<ellipse fill="none" stroke="black" cx="378.84" cy="-279" rx="162.47" ry="18"/>
<text text-anchor="middle" x="378.84" y="-275.3" font-family="Times New Roman,serif" font-size="14.00">1 &#45;&gt; {((3, 6), &#39;B&#39;, True), ((1, 6), &#39;A&#39;, True)}</text>
</g>
<!-- 0&#45;&gt;1 -->
<g id="edge13" class="edge">
<title>0&#45;&gt;1</title>
<path fill="none" stroke="black" d="M378.84,-347.8C378.84,-336.16 378.84,-320.55 378.84,-307.24"/>
<polygon fill="black" stroke="black" points="382.34,-307.18 378.84,-297.18 375.34,-307.18 382.34,-307.18"/>
<text text-anchor="middle" x="403.84" y="-318.8" font-family="Times New Roman,serif" font-size="14.00">Move(E)</text>
</g>
<!-- 3 -->
<g id="node11" class="node">
<title>3</title>
<ellipse fill="none" stroke="black" cx="101.84" cy="-279" rx="96.68" ry="18"/>
<text text-anchor="middle" x="101.84" y="-275.3" font-family="Times New Roman,serif" font-size="14.00">3 &#45;&gt; {((3, 6), &#39;B&#39;, True)}</text>
</g>
<!-- 0&#45;&gt;3 -->
<g id="edge15" class="edge">
<title>0&#45;&gt;3</title>
<path fill="none" stroke="black" d="M326.41,-348.91C278.87,-334.32 208.91,-312.86 159.74,-297.77"/>
<polygon fill="black" stroke="black" points="160.47,-294.33 149.89,-294.74 158.42,-301.02 160.47,-294.33"/>
<text text-anchor="middle" x="281.34" y="-318.8" font-family="Times New Roman,serif" font-size="14.00">Move(S)</text>
</g>
<!-- 2 -->
<g id="node12" class="node">
<title>2</title>
<ellipse fill="none" stroke="black" cx="656.84" cy="-279" rx="97.48" ry="18"/>
<text text-anchor="middle" x="656.84" y="-275.3" font-family="Times New Roman,serif" font-size="14.00">2 &#45;&gt; {((1, 6), &#39;A&#39;, True)}</text>
</g>
<!-- 0&#45;&gt;2 -->
<g id="edge17" class="edge">
<title>0&#45;&gt;2</title>
<path fill="none" stroke="black" d="M431.46,-348.91C479.27,-334.29 549.68,-312.77 599.04,-297.67"/>
<polygon fill="black" stroke="black" points="600.08,-301.01 608.62,-294.74 598.04,-294.32 600.08,-301.01"/>
<text text-anchor="middle" x="559.84" y="-318.8" font-family="Times New Roman,serif" font-size="14.00">Move(N)</text>
</g>
<!-- 6 -->
<g id="node3" class="node">
<title>6</title>
<ellipse fill="none" stroke="black" cx="101.84" cy="-192" rx="96.68" ry="18"/>
<text text-anchor="middle" x="101.84" y="-188.3" font-family="Times New Roman,serif" font-size="14.00">6 &#45;&gt; {((3, 6), &#39;B&#39;, True)}</text>
</g>
<!-- 1&#45;&gt;6 -->
<g id="edge3" class="edge">
<title>1&#45;&gt;6</title>
<path fill="none" stroke="black" d="M326.41,-261.91C278.87,-247.32 208.91,-225.86 159.74,-210.77"/>
<polygon fill="black" stroke="black" points="160.47,-207.33 149.89,-207.74 158.42,-214.02 160.47,-207.33"/>
<text text-anchor="middle" x="281.34" y="-231.8" font-family="Times New Roman,serif" font-size="14.00">Move(S)</text>
</g>
<!-- 7 -->
<g id="node6" class="node">
<title>7</title>
<ellipse fill="none" stroke="black" cx="378.84" cy="-192" rx="162.47" ry="18"/>
<text text-anchor="middle" x="378.84" y="-188.3" font-family="Times New Roman,serif" font-size="14.00">7 &#45;&gt; {((3, 6), &#39;B&#39;, True), ((1, 6), &#39;A&#39;, True)}</text>
</g>
<!-- 1&#45;&gt;7 -->
<g id="edge10" class="edge">
<title>1&#45;&gt;7</title>
<path fill="none" stroke="black" d="M378.84,-260.8C378.84,-249.16 378.84,-233.55 378.84,-220.24"/>
<polygon fill="black" stroke="black" points="382.34,-220.18 378.84,-210.18 375.34,-220.18 382.34,-220.18"/>
<text text-anchor="middle" x="403.84" y="-231.8" font-family="Times New Roman,serif" font-size="14.00">Move(E)</text>
</g>
<!-- 5 -->
<g id="node10" class="node">
<title>5</title>
<ellipse fill="none" stroke="black" cx="656.84" cy="-192" rx="97.48" ry="18"/>
<text text-anchor="middle" x="656.84" y="-188.3" font-family="Times New Roman,serif" font-size="14.00">5 &#45;&gt; {((1, 6), &#39;A&#39;, True)}</text>
</g>
<!-- 1&#45;&gt;5 -->
<g id="edge12" class="edge">
<title>1&#45;&gt;5</title>
<path fill="none" stroke="black" d="M431.46,-261.91C479.27,-247.29 549.68,-225.77 599.04,-210.67"/>
<polygon fill="black" stroke="black" points="600.08,-214.01 608.62,-207.74 598.04,-207.32 600.08,-214.01"/>
<text text-anchor="middle" x="559.84" y="-231.8" font-family="Times New Roman,serif" font-size="14.00">Move(N)</text>
</g>
<!-- 9 -->
<g id="node4" class="node">
<title>9</title>
<ellipse fill="none" stroke="black" cx="96.84" cy="-105" rx="96.68" ry="18"/>
<text text-anchor="middle" x="96.84" y="-101.3" font-family="Times New Roman,serif" font-size="14.00">9 &#45;&gt; {((3, 6), &#39;B&#39;, True)}</text>
</g>
<!-- 6&#45;&gt;9 -->
<g id="edge2" class="edge">
<title>6&#45;&gt;9</title>
<path fill="none" stroke="black" d="M100.83,-173.8C100.15,-162.16 99.23,-146.55 98.44,-133.24"/>
<polygon fill="black" stroke="black" points="101.93,-132.95 97.85,-123.18 94.95,-133.36 101.93,-132.95"/>
<text text-anchor="middle" x="124.84" y="-144.8" font-family="Times New Roman,serif" font-size="14.00">Move(E)</text>
</g>
<!-- 15 -->
<g id="node5" class="node">
<title>15</title>
<ellipse fill="none" stroke="black" cx="220.84" cy="-18" rx="101.28" ry="18"/>
<text text-anchor="middle" x="220.84" y="-14.3" font-family="Times New Roman,serif" font-size="14.00">15 &#45;&gt; {((3, 6), &#39;B&#39;, True)}</text>
</g>
<!-- 9&#45;&gt;15 -->
<g id="edge1" class="edge">
<title>9&#45;&gt;15</title>
<path fill="none" stroke="black" d="M121.04,-87.41C140.25,-74.25 167.27,-55.72 188.36,-41.27"/>
<polygon fill="black" stroke="black" points="190.43,-44.09 196.7,-35.55 186.47,-38.32 190.43,-44.09"/>
<text text-anchor="middle" x="194.84" y="-57.8" font-family="Times New Roman,serif" font-size="14.00">Push(E,E)</text>
</g>
<!-- 7&#45;&gt;9 -->
<g id="edge4" class="edge">
<title>7&#45;&gt;9</title>
<path fill="none" stroke="black" d="M325.47,-174.91C276.82,-160.25 205.1,-138.63 155.01,-123.53"/>
<polygon fill="black" stroke="black" points="155.87,-120.14 145.29,-120.6 153.85,-126.84 155.87,-120.14"/>
<text text-anchor="middle" x="278.34" y="-144.8" font-family="Times New Roman,serif" font-size="14.00">Move(S)</text>
</g>
<!-- 10 -->
<g id="node7" class="node">
<title>10</title>
<ellipse fill="none" stroke="black" cx="378.84" cy="-105" rx="167.07" ry="18"/>
<text text-anchor="middle" x="378.84" y="-101.3" font-family="Times New Roman,serif" font-size="14.00">10 &#45;&gt; {((3, 6), &#39;B&#39;, True), ((1, 6), &#39;A&#39;, True)}</text>
</g>
<!-- 7&#45;&gt;10 -->
<g id="edge7" class="edge">
<title>7&#45;&gt;10</title>
<path fill="none" stroke="black" d="M378.84,-173.8C378.84,-162.16 378.84,-146.55 378.84,-133.24"/>
<polygon fill="black" stroke="black" points="382.34,-133.18 378.84,-123.18 375.34,-133.18 382.34,-133.18"/>
<text text-anchor="middle" x="403.84" y="-144.8" font-family="Times New Roman,serif" font-size="14.00">Move(E)</text>
</g>
<!-- 8 -->
<g id="node9" class="node">
<title>8</title>
<ellipse fill="none" stroke="black" cx="661.84" cy="-105" rx="97.48" ry="18"/>
<text text-anchor="middle" x="661.84" y="-101.3" font-family="Times New Roman,serif" font-size="14.00">8 &#45;&gt; {((1, 6), &#39;A&#39;, True)}</text>
</g>
<!-- 7&#45;&gt;8 -->
<g id="edge9" class="edge">
<title>7&#45;&gt;8</title>
<path fill="none" stroke="black" d="M432.4,-174.91C481.23,-160.25 553.19,-138.63 603.47,-123.53"/>
<polygon fill="black" stroke="black" points="604.65,-126.83 613.22,-120.6 602.64,-120.13 604.65,-126.83"/>
<text text-anchor="middle" x="562.84" y="-144.8" font-family="Times New Roman,serif" font-size="14.00">Move(N)</text>
</g>
<!-- 10&#45;&gt;15 -->
<g id="edge5" class="edge">
<title>10&#45;&gt;15</title>
<path fill="none" stroke="black" d="M347.63,-87.21C322.5,-73.69 287.04,-54.61 260,-40.07"/>
<polygon fill="black" stroke="black" points="261.65,-36.98 251.19,-35.33 258.34,-43.15 261.65,-36.98"/>
<text text-anchor="middle" x="336.34" y="-57.8" font-family="Times New Roman,serif" font-size="14.00">Push(S,E)</text>
</g>
<!-- 12 -->
<g id="node8" class="node">
<title>12</title>
<ellipse fill="none" stroke="black" cx="445.84" cy="-18" rx="102.08" ry="18"/>
<text text-anchor="middle" x="445.84" y="-14.3" font-family="Times New Roman,serif" font-size="14.00">12 &#45;&gt; {((1, 6), &#39;A&#39;, True)}</text>
</g>
<!-- 10&#45;&gt;12 -->
<g id="edge6" class="edge">
<title>10&#45;&gt;12</title>
<path fill="none" stroke="black" d="M392.4,-86.8C402.09,-74.51 415.28,-57.77 426.13,-44.01"/>
<polygon fill="black" stroke="black" points="429.09,-45.91 432.53,-35.89 423.59,-41.57 429.09,-45.91"/>
<text text-anchor="middle" x="444.84" y="-57.8" font-family="Times New Roman,serif" font-size="14.00">Push(N,E)</text>
</g>
<!-- 8&#45;&gt;12 -->
<g id="edge8" class="edge">
<title>8&#45;&gt;12</title>
<path fill="none" stroke="black" d="M622.22,-88.41C586.41,-74.32 533.55,-53.51 495.04,-38.36"/>
<polygon fill="black" stroke="black" points="496.16,-35.04 485.57,-34.64 493.6,-41.55 496.16,-35.04"/>
<text text-anchor="middle" x="593.84" y="-57.8" font-family="Times New Roman,serif" font-size="14.00">Push(E,E)</text>
</g>
<!-- 5&#45;&gt;8 -->
<g id="edge11" class="edge">
<title>5&#45;&gt;8</title>
<path fill="none" stroke="black" d="M657.85,-173.8C658.54,-162.16 659.46,-146.55 660.24,-133.24"/>
<polygon fill="black" stroke="black" points="663.74,-133.36 660.83,-123.18 656.75,-132.95 663.74,-133.36"/>
<text text-anchor="middle" x="683.84" y="-144.8" font-family="Times New Roman,serif" font-size="14.00">Move(E)</text>
</g>
<!-- 3&#45;&gt;6 -->
<g id="edge14" class="edge">
<title>3&#45;&gt;6</title>
<path fill="none" stroke="black" d="M101.84,-260.8C101.84,-249.16 101.84,-233.55 101.84,-220.24"/>
<polygon fill="black" stroke="black" points="105.34,-220.18 101.84,-210.18 98.34,-220.18 105.34,-220.18"/>
<text text-anchor="middle" x="126.84" y="-231.8" font-family="Times New Roman,serif" font-size="14.00">Move(E)</text>
</g>
<!-- 2&#45;&gt;5 -->
<g id="edge16" class="edge">
<title>2&#45;&gt;5</title>
<path fill="none" stroke="black" d="M656.84,-260.8C656.84,-249.16 656.84,-233.55 656.84,-220.24"/>
<polygon fill="black" stroke="black" points="660.34,-220.18 656.84,-210.18 653.34,-220.18 660.34,-220.18"/>
<text text-anchor="middle" x="681.84" y="-231.8" font-family="Times New Roman,serif" font-size="14.00">Move(E)</text>
</g>
</g>
</svg>
