<?xml version="1.0" encoding="UTF-8" standalone="no"?>
<!DOCTYPE svg PUBLIC "-//W3C//DTD SVG 1.1//EN"
 "http://www.w3.org/Graphics/SVG/1.1/DTD/svg11.dtd">
<!-- Generated by graphviz version 2.50.0 (0)
 -->
<!-- Pages: 1 -->
<svg width="432pt" height="218pt"
 viewBox="0.00 0.00 431.78 218.00" xmlns="http://www.w3.org/2000/svg" xmlns:xlink="http://www.w3.org/1999/xlink">
<g id="graph0" class="graph" transform="scale(1 1) rotate(0) translate(4 214)">
<polygon fill="white" stroke="transparent" points="-4,4 -4,-214 427.78,-214 427.78,4 -4,4"/>
<!-- 23 -->
<g id="node1" class="node">
<title>23</title>
<ellipse fill="none" stroke="black" cx="211.39" cy="-192" rx="101.28" ry="18"/>
<text text-anchor="middle" x="211.39" y="-188.3" font-family="Times New Roman,serif" font-size="14.00">23 &#45;&gt; {((3, 6), &#39;B&#39;, True)}</text>
</g>
<!-- 26 -->
<g id="node2" class="node">
<title>26</title>
<ellipse fill="none" stroke="black" cx="101.39" cy="-105" rx="101.28" ry="18"/>
<text text-anchor="middle" x="101.39" y="-101.3" font-family="Times New Roman,serif" font-size="14.00">26 &#45;&gt; {((3, 6), &#39;B&#39;, True)}</text>
</g>
<!-- 23&#45;&gt;26 -->
<g id="edge2" class="edge">
<title>23&#45;&gt;26</title>
<path fill="none" stroke="black" d="M189.66,-174.21C172.94,-161.28 149.64,-143.28 131.18,-129.02"/>
<polygon fill="black" stroke="black" points="133.13,-126.1 123.08,-122.76 128.85,-131.64 133.13,-126.1"/>
<text text-anchor="middle" x="187.89" y="-144.8" font-family="Times New Roman,serif" font-size="14.00">Move(S)</text>
</g>
<!-- 24 -->
<g id="node4" class="node">
<title>24</title>
<ellipse fill="none" stroke="black" cx="322.39" cy="-105" rx="101.28" ry="18"/>
<text text-anchor="middle" x="322.39" y="-101.3" font-family="Times New Roman,serif" font-size="14.00">24 &#45;&gt; {((3, 6), &#39;B&#39;, True)}</text>
</g>
<!-- 23&#45;&gt;24 -->
<g id="edge4" class="edge">
<title>23&#45;&gt;24</title>
<path fill="none" stroke="black" d="M233.06,-174.41C249.98,-161.45 273.7,-143.28 292.44,-128.93"/>
<polygon fill="black" stroke="black" points="294.59,-131.7 300.4,-122.84 290.33,-126.14 294.59,-131.7"/>
<text text-anchor="middle" x="302.39" y="-144.8" font-family="Times New Roman,serif" font-size="14.00">Pull(S,W)</text>
</g>
<!-- 36 -->
<g id="node3" class="node">
<title>36</title>
<ellipse fill="none" stroke="black" cx="101.39" cy="-18" rx="101.28" ry="18"/>
<text text-anchor="middle" x="101.39" y="-14.3" font-family="Times New Roman,serif" font-size="14.00">36 &#45;&gt; {((3, 6), &#39;B&#39;, True)}</text>
</g>
<!-- 26&#45;&gt;36 -->
<g id="edge1" class="edge">
<title>26&#45;&gt;36</title>
<path fill="none" stroke="black" d="M101.39,-86.8C101.39,-75.16 101.39,-59.55 101.39,-46.24"/>
<polygon fill="black" stroke="black" points="104.89,-46.18 101.39,-36.18 97.89,-46.18 104.89,-46.18"/>
<text text-anchor="middle" x="128.89" y="-57.8" font-family="Times New Roman,serif" font-size="14.00">Push(S,E)</text>
</g>
<!-- 29 -->
<g id="node5" class="node">
<title>29</title>
<ellipse fill="none" stroke="black" cx="322.39" cy="-18" rx="101.28" ry="18"/>
<text text-anchor="middle" x="322.39" y="-14.3" font-family="Times New Roman,serif" font-size="14.00">29 &#45;&gt; {((3, 6), &#39;B&#39;, True)}</text>
</g>
<!-- 24&#45;&gt;29 -->
<g id="edge3" class="edge">
<title>24&#45;&gt;29</title>
<path fill="none" stroke="black" d="M322.39,-86.8C322.39,-75.16 322.39,-59.55 322.39,-46.24"/>
<polygon fill="black" stroke="black" points="325.89,-46.18 322.39,-36.18 318.89,-46.18 325.89,-46.18"/>
<text text-anchor="middle" x="349.89" y="-57.8" font-family="Times New Roman,serif" font-size="14.00">Push(S,E)</text>
</g>
</g>
</svg>
