<?xml version="1.0" encoding="UTF-8" standalone="no"?>
<!DOCTYPE svg PUBLIC "-//W3C//DTD SVG 1.1//EN"
 "http://www.w3.org/Graphics/SVG/1.1/DTD/svg11.dtd">
<!-- Generated by graphviz version 2.50.0 (0)
 -->
<!-- Pages: 1 -->
<svg width="432pt" height="392pt"
 viewBox="0.00 0.00 432.43 392.00" xmlns="http://www.w3.org/2000/svg" xmlns:xlink="http://www.w3.org/1999/xlink">
<g id="graph0" class="graph" transform="scale(1 1) rotate(0) translate(4 388)">
<polygon fill="white" stroke="transparent" points="-4,4 -4,-388 428.43,-388 428.43,4 -4,4"/>
<!-- 0 -->
<g id="node1" class="node">
<title>0</title>
<ellipse fill="none" stroke="black" cx="210.04" cy="-366" rx="162.47" ry="18"/>
<text text-anchor="middle" x="210.04" y="-362.3" font-family="Times New Roman,serif" font-size="14.00">0 &#45;&gt; {((1, 6), &#39;A&#39;, True), ((3, 6), &#39;B&#39;, True)}</text>
</g>
<!-- 1 -->
<g id="node2" class="node">
<title>1</title>
<ellipse fill="none" stroke="black" cx="210.04" cy="-279" rx="162.47" ry="18"/>
<text text-anchor="middle" x="210.04" y="-275.3" font-family="Times New Roman,serif" font-size="14.00">1 &#45;&gt; {((1, 6), &#39;A&#39;, True), ((3, 6), &#39;B&#39;, True)}</text>
</g>
<!-- 0&#45;&gt;1 -->
<g id="edge7" class="edge">
<title>0&#45;&gt;1</title>
<path fill="none" stroke="black" d="M210.04,-347.8C210.04,-336.16 210.04,-320.55 210.04,-307.24"/>
<polygon fill="black" stroke="black" points="213.54,-307.18 210.04,-297.18 206.54,-307.18 213.54,-307.18"/>
<text text-anchor="middle" x="235.04" y="-318.8" font-family="Times New Roman,serif" font-size="14.00">Move(E)</text>
</g>
<!-- 5 -->
<g id="node3" class="node">
<title>5</title>
<ellipse fill="none" stroke="black" cx="105.04" cy="-192" rx="97.48" ry="18"/>
<text text-anchor="middle" x="105.04" y="-188.3" font-family="Times New Roman,serif" font-size="14.00">5 &#45;&gt; {((1, 6), &#39;A&#39;, True)}</text>
</g>
<!-- 1&#45;&gt;5 -->
<g id="edge3" class="edge">
<title>1&#45;&gt;5</title>
<path fill="none" stroke="black" d="M189.04,-261C173.2,-248.18 151.29,-230.44 133.82,-216.3"/>
<polygon fill="black" stroke="black" points="135.62,-213.25 125.64,-209.68 131.21,-218.69 135.62,-213.25"/>
<text text-anchor="middle" x="190.04" y="-231.8" font-family="Times New Roman,serif" font-size="14.00">Move(N)</text>
</g>
<!-- 6 -->
<g id="node6" class="node">
<title>6</title>
<ellipse fill="none" stroke="black" cx="317.04" cy="-192" rx="96.68" ry="18"/>
<text text-anchor="middle" x="317.04" y="-188.3" font-family="Times New Roman,serif" font-size="14.00">6 &#45;&gt; {((3, 6), &#39;B&#39;, True)}</text>
</g>
<!-- 1&#45;&gt;6 -->
<g id="edge6" class="edge">
<title>1&#45;&gt;6</title>
<path fill="none" stroke="black" d="M231.44,-261C247.73,-248.06 270.32,-230.12 288.2,-215.91"/>
<polygon fill="black" stroke="black" points="290.39,-218.64 296.05,-209.68 286.04,-213.16 290.39,-218.64"/>
<text text-anchor="middle" x="293.54" y="-231.8" font-family="Times New Roman,serif" font-size="14.00">Move(S)</text>
</g>
<!-- 8 -->
<g id="node4" class="node">
<title>8</title>
<ellipse fill="none" stroke="black" cx="105.04" cy="-105" rx="97.48" ry="18"/>
<text text-anchor="middle" x="105.04" y="-101.3" font-family="Times New Roman,serif" font-size="14.00">8 &#45;&gt; {((1, 6), &#39;A&#39;, True)}</text>
</g>
<!-- 5&#45;&gt;8 -->
<g id="edge2" class="edge">
<title>5&#45;&gt;8</title>
<path fill="none" stroke="black" d="M105.04,-173.8C105.04,-162.16 105.04,-146.55 105.04,-133.24"/>
<polygon fill="black" stroke="black" points="108.54,-133.18 105.04,-123.18 101.54,-133.18 108.54,-133.18"/>
<text text-anchor="middle" x="130.04" y="-144.8" font-family="Times New Roman,serif" font-size="14.00">Move(E)</text>
</g>
<!-- 12 -->
<g id="node5" class="node">
<title>12</title>
<ellipse fill="none" stroke="black" cx="102.04" cy="-18" rx="102.08" ry="18"/>
<text text-anchor="middle" x="102.04" y="-14.3" font-family="Times New Roman,serif" font-size="14.00">12 &#45;&gt; {((1, 6), &#39;A&#39;, True)}</text>
</g>
<!-- 8&#45;&gt;12 -->
<g id="edge1" class="edge">
<title>8&#45;&gt;12</title>
<path fill="none" stroke="black" d="M104.43,-86.8C104.02,-75.16 103.47,-59.55 103,-46.24"/>
<polygon fill="black" stroke="black" points="106.5,-46.05 102.65,-36.18 99.5,-46.29 106.5,-46.05"/>
<text text-anchor="middle" x="132.04" y="-57.8" font-family="Times New Roman,serif" font-size="14.00">Push(E,E)</text>
</g>
<!-- 9 -->
<g id="node7" class="node">
<title>9</title>
<ellipse fill="none" stroke="black" cx="321.04" cy="-105" rx="96.68" ry="18"/>
<text text-anchor="middle" x="321.04" y="-101.3" font-family="Times New Roman,serif" font-size="14.00">9 &#45;&gt; {((3, 6), &#39;B&#39;, True)}</text>
</g>
<!-- 6&#45;&gt;9 -->
<g id="edge5" class="edge">
<title>6&#45;&gt;9</title>
<path fill="none" stroke="black" d="M317.85,-173.8C318.4,-162.16 319.13,-146.55 319.76,-133.24"/>
<polygon fill="black" stroke="black" points="323.26,-133.33 320.23,-123.18 316.27,-133 323.26,-133.33"/>
<text text-anchor="middle" x="344.04" y="-144.8" font-family="Times New Roman,serif" font-size="14.00">Move(E)</text>
</g>
<!-- 15 -->
<g id="node8" class="node">
<title>15</title>
<ellipse fill="none" stroke="black" cx="323.04" cy="-18" rx="101.28" ry="18"/>
<text text-anchor="middle" x="323.04" y="-14.3" font-family="Times New Roman,serif" font-size="14.00">15 &#45;&gt; {((3, 6), &#39;B&#39;, True)}</text>
</g>
<!-- 9&#45;&gt;15 -->
<g id="edge4" class="edge">
<title>9&#45;&gt;15</title>
<path fill="none" stroke="black" d="M321.45,-86.8C321.72,-75.16 322.09,-59.55 322.4,-46.24"/>
<polygon fill="black" stroke="black" points="325.9,-46.26 322.64,-36.18 318.9,-46.09 325.9,-46.26"/>
<text text-anchor="middle" x="350.04" y="-57.8" font-family="Times New Roman,serif" font-size="14.00">Push(E,E)</text>
</g>
</g>
</svg>
