<?xml version="1.0" encoding="UTF-8" standalone="no"?>
<!DOCTYPE svg PUBLIC "-//W3C//DTD SVG 1.1//EN"
 "http://www.w3.org/Graphics/SVG/1.1/DTD/svg11.dtd">
<!-- Generated by graphviz version 8.0.4 (20230421.1958)
 -->
<!-- Pages: 1 -->
<svg width="801pt" height="398pt"
 viewBox="0.00 0.00 800.53 398.00" xmlns="http://www.w3.org/2000/svg" xmlns:xlink="http://www.w3.org/1999/xlink">
<g id="graph0" class="graph" transform="scale(1 1) rotate(0) translate(4 394)">
<polygon fill="white" stroke="none" points="-4,4 -4,-394 796.53,-394 796.53,4 -4,4"/>
<!-- 0 -->
<g id="node1" class="node">
<title>0</title>
<ellipse fill="none" stroke="black" cx="397.02" cy="-372" rx="170.09" ry="18"/>
<text text-anchor="middle" x="397.02" y="-366.95" font-family="Times,serif" font-size="14.00">0 &#45;&gt; {((3, 6), &#39;B&#39;, True), ((1, 6), &#39;A&#39;, True)}</text>
</g>
<!-- 1 -->
<g id="node2" class="node">
<title>1</title>
<ellipse fill="none" stroke="black" cx="397.02" cy="-283.5" rx="170.09" ry="18"/>
<text text-anchor="middle" x="397.02" y="-278.45" font-family="Times,serif" font-size="14.00">1 &#45;&gt; {((3, 6), &#39;B&#39;, True), ((1, 6), &#39;A&#39;, True)}</text>
</g>
<!-- 0&#45;&gt;1 -->
<g id="edge13" class="edge">
<title>0&#45;&gt;1</title>
<path fill="none" stroke="black" d="M397.02,-353.91C397.02,-342.14 397.02,-326.23 397.02,-312.61"/>
<polygon fill="black" stroke="black" points="400.52,-312.85 397.02,-302.85 393.52,-312.85 400.52,-312.85"/>
<text text-anchor="middle" x="421.77" y="-322.7" font-family="Times,serif" font-size="14.00">Move(E)</text>
</g>
<!-- 2 -->
<g id="node11" class="node">
<title>2</title>
<ellipse fill="none" stroke="black" cx="107.02" cy="-283.5" rx="102.02" ry="18"/>
<text text-anchor="middle" x="107.02" y="-278.45" font-family="Times,serif" font-size="14.00">2 &#45;&gt; {((1, 6), &#39;A&#39;, True)}</text>
</g>
<!-- 0&#45;&gt;2 -->
<g id="edge15" class="edge">
<title>0&#45;&gt;2</title>
<path fill="none" stroke="black" d="M341.79,-354.53C291.98,-339.67 218.86,-317.86 167.49,-302.54"/>
<polygon fill="black" stroke="black" points="168.78,-298.97 158.2,-299.47 166.78,-305.68 168.78,-298.97"/>
<text text-anchor="middle" x="302.52" y="-322.7" font-family="Times,serif" font-size="14.00">Move(N)</text>
</g>
<!-- 3 -->
<g id="node12" class="node">
<title>3</title>
<ellipse fill="none" stroke="black" cx="687.02" cy="-283.5" rx="101.51" ry="18"/>
<text text-anchor="middle" x="687.02" y="-278.45" font-family="Times,serif" font-size="14.00">3 &#45;&gt; {((3, 6), &#39;B&#39;, True)}</text>
</g>
<!-- 0&#45;&gt;3 -->
<g id="edge17" class="edge">
<title>0&#45;&gt;3</title>
<path fill="none" stroke="black" d="M452.25,-354.53C502.06,-339.67 575.18,-317.86 626.55,-302.54"/>
<polygon fill="black" stroke="black" points="627.26,-305.68 635.84,-299.47 625.26,-298.97 627.26,-305.68"/>
<text text-anchor="middle" x="591.4" y="-322.7" font-family="Times,serif" font-size="14.00">Move(S)</text>
</g>
<!-- 5 -->
<g id="node3" class="node">
<title>5</title>
<ellipse fill="none" stroke="black" cx="107.02" cy="-195" rx="102.02" ry="18"/>
<text text-anchor="middle" x="107.02" y="-189.95" font-family="Times,serif" font-size="14.00">5 &#45;&gt; {((1, 6), &#39;A&#39;, True)}</text>
</g>
<!-- 1&#45;&gt;5 -->
<g id="edge3" class="edge">
<title>1&#45;&gt;5</title>
<path fill="none" stroke="black" d="M341.79,-266.03C291.98,-251.17 218.86,-229.36 167.49,-214.04"/>
<polygon fill="black" stroke="black" points="168.78,-210.47 158.2,-210.97 166.78,-217.18 168.78,-210.47"/>
<text text-anchor="middle" x="302.52" y="-234.2" font-family="Times,serif" font-size="14.00">Move(N)</text>
</g>
<!-- 7 -->
<g id="node6" class="node">
<title>7</title>
<ellipse fill="none" stroke="black" cx="397.02" cy="-195" rx="170.09" ry="18"/>
<text text-anchor="middle" x="397.02" y="-189.95" font-family="Times,serif" font-size="14.00">7 &#45;&gt; {((3, 6), &#39;B&#39;, True), ((1, 6), &#39;A&#39;, True)}</text>
</g>
<!-- 1&#45;&gt;7 -->
<g id="edge10" class="edge">
<title>1&#45;&gt;7</title>
<path fill="none" stroke="black" d="M397.02,-265.41C397.02,-253.64 397.02,-237.73 397.02,-224.11"/>
<polygon fill="black" stroke="black" points="400.52,-224.35 397.02,-214.35 393.52,-224.35 400.52,-224.35"/>
<text text-anchor="middle" x="421.77" y="-234.2" font-family="Times,serif" font-size="14.00">Move(E)</text>
</g>
<!-- 6 -->
<g id="node10" class="node">
<title>6</title>
<ellipse fill="none" stroke="black" cx="687.02" cy="-195" rx="101.51" ry="18"/>
<text text-anchor="middle" x="687.02" y="-189.95" font-family="Times,serif" font-size="14.00">6 &#45;&gt; {((3, 6), &#39;B&#39;, True)}</text>
</g>
<!-- 1&#45;&gt;6 -->
<g id="edge12" class="edge">
<title>1&#45;&gt;6</title>
<path fill="none" stroke="black" d="M452.25,-266.03C502.06,-251.17 575.18,-229.36 626.55,-214.04"/>
<polygon fill="black" stroke="black" points="627.26,-217.18 635.84,-210.97 625.26,-210.47 627.26,-217.18"/>
<text text-anchor="middle" x="591.4" y="-234.2" font-family="Times,serif" font-size="14.00">Move(S)</text>
</g>
<!-- 8 -->
<g id="node4" class="node">
<title>8</title>
<ellipse fill="none" stroke="black" cx="102.02" cy="-106.5" rx="102.02" ry="18"/>
<text text-anchor="middle" x="102.02" y="-101.45" font-family="Times,serif" font-size="14.00">8 &#45;&gt; {((1, 6), &#39;A&#39;, True)}</text>
</g>
<!-- 5&#45;&gt;8 -->
<g id="edge2" class="edge">
<title>5&#45;&gt;8</title>
<path fill="none" stroke="black" d="M106.03,-176.91C105.35,-165.14 104.43,-149.23 103.65,-135.61"/>
<polygon fill="black" stroke="black" points="107.09,-135.63 103.02,-125.85 100.11,-136.04 107.09,-135.63"/>
<text text-anchor="middle" x="129.77" y="-145.7" font-family="Times,serif" font-size="14.00">Move(E)</text>
</g>
<!-- 12 -->
<g id="node5" class="node">
<title>12</title>
<ellipse fill="none" stroke="black" cx="233.02" cy="-18" rx="106.63" ry="18"/>
<text text-anchor="middle" x="233.02" y="-12.95" font-family="Times,serif" font-size="14.00">12 &#45;&gt; {((1, 6), &#39;A&#39;, True)}</text>
</g>
<!-- 8&#45;&gt;12 -->
<g id="edge1" class="edge">
<title>8&#45;&gt;12</title>
<path fill="none" stroke="black" d="M127.59,-88.62C147.79,-75.28 176.18,-56.54 198.41,-41.86"/>
<polygon fill="black" stroke="black" points="200.1,-44.27 206.52,-35.84 196.24,-38.43 200.1,-44.27"/>
<text text-anchor="middle" x="207.77" y="-57.2" font-family="Times,serif" font-size="14.00">Push(E,E)</text>
</g>
<!-- 7&#45;&gt;8 -->
<g id="edge4" class="edge">
<title>7&#45;&gt;8</title>
<path fill="none" stroke="black" d="M341.19,-177.63C290.55,-162.78 216.05,-140.93 163.68,-125.58"/>
<polygon fill="black" stroke="black" points="164.77,-121.96 154.19,-122.5 162.8,-128.68 164.77,-121.96"/>
<text text-anchor="middle" x="300.52" y="-145.7" font-family="Times,serif" font-size="14.00">Move(N)</text>
</g>
<!-- 10 -->
<g id="node7" class="node">
<title>10</title>
<ellipse fill="none" stroke="black" cx="397.02" cy="-106.5" rx="174.7" ry="18"/>
<text text-anchor="middle" x="397.02" y="-101.45" font-family="Times,serif" font-size="14.00">10 &#45;&gt; {((3, 6), &#39;B&#39;, True), ((1, 6), &#39;A&#39;, True)}</text>
</g>
<!-- 7&#45;&gt;10 -->
<g id="edge7" class="edge">
<title>7&#45;&gt;10</title>
<path fill="none" stroke="black" d="M397.02,-176.91C397.02,-165.14 397.02,-149.23 397.02,-135.61"/>
<polygon fill="black" stroke="black" points="400.52,-135.85 397.02,-125.85 393.52,-135.85 400.52,-135.85"/>
<text text-anchor="middle" x="421.77" y="-145.7" font-family="Times,serif" font-size="14.00">Move(E)</text>
</g>
<!-- 9 -->
<g id="node9" class="node">
<title>9</title>
<ellipse fill="none" stroke="black" cx="691.02" cy="-106.5" rx="101.51" ry="18"/>
<text text-anchor="middle" x="691.02" y="-101.45" font-family="Times,serif" font-size="14.00">9 &#45;&gt; {((3, 6), &#39;B&#39;, True)}</text>
</g>
<!-- 7&#45;&gt;9 -->
<g id="edge9" class="edge">
<title>7&#45;&gt;9</title>
<path fill="none" stroke="black" d="M453.01,-177.53C503.51,-162.67 577.64,-140.86 629.72,-125.54"/>
<polygon fill="black" stroke="black" points="630.54,-128.65 639.15,-122.47 628.57,-121.93 630.54,-128.65"/>
<text text-anchor="middle" x="594.4" y="-145.7" font-family="Times,serif" font-size="14.00">Move(S)</text>
</g>
<!-- 10&#45;&gt;12 -->
<g id="edge5" class="edge">
<title>10&#45;&gt;12</title>
<path fill="none" stroke="black" d="M364.62,-88.41C338.65,-74.71 302.05,-55.41 274.04,-40.63"/>
<polygon fill="black" stroke="black" points="276,-37.18 265.52,-35.61 272.73,-43.37 276,-37.18"/>
<text text-anchor="middle" x="357.52" y="-57.2" font-family="Times,serif" font-size="14.00">Push(N,E)</text>
</g>
<!-- 15 -->
<g id="node8" class="node">
<title>15</title>
<ellipse fill="none" stroke="black" cx="465.02" cy="-18" rx="106.11" ry="18"/>
<text text-anchor="middle" x="465.02" y="-12.95" font-family="Times,serif" font-size="14.00">15 &#45;&gt; {((3, 6), &#39;B&#39;, True)}</text>
</g>
<!-- 10&#45;&gt;15 -->
<g id="edge6" class="edge">
<title>10&#45;&gt;15</title>
<path fill="none" stroke="black" d="M410.46,-88.41C420.33,-75.85 433.91,-58.58 445.05,-44.41"/>
<polygon fill="black" stroke="black" points="448.19,-47.08 451.61,-37.05 442.68,-42.75 448.19,-47.08"/>
<text text-anchor="middle" x="464.4" y="-57.2" font-family="Times,serif" font-size="14.00">Push(S,E)</text>
</g>
<!-- 9&#45;&gt;15 -->
<g id="edge8" class="edge">
<title>9&#45;&gt;15</title>
<path fill="none" stroke="black" d="M649.57,-89.63C612.17,-75.32 557.02,-54.21 516.75,-38.8"/>
<polygon fill="black" stroke="black" points="518.18,-35.22 507.59,-34.91 515.68,-41.75 518.18,-35.22"/>
<text text-anchor="middle" x="625.77" y="-57.2" font-family="Times,serif" font-size="14.00">Push(E,E)</text>
</g>
<!-- 6&#45;&gt;9 -->
<g id="edge11" class="edge">
<title>6&#45;&gt;9</title>
<path fill="none" stroke="black" d="M687.81,-176.91C688.35,-165.14 689.09,-149.23 689.72,-135.61"/>
<polygon fill="black" stroke="black" points="693.25,-136 690.22,-125.85 686.26,-135.68 693.25,-136"/>
<text text-anchor="middle" x="713.77" y="-145.7" font-family="Times,serif" font-size="14.00">Move(E)</text>
</g>
<!-- 2&#45;&gt;5 -->
<g id="edge14" class="edge">
<title>2&#45;&gt;5</title>
<path fill="none" stroke="black" d="M107.02,-265.41C107.02,-253.64 107.02,-237.73 107.02,-224.11"/>
<polygon fill="black" stroke="black" points="110.52,-224.35 107.02,-214.35 103.52,-224.35 110.52,-224.35"/>
<text text-anchor="middle" x="131.77" y="-234.2" font-family="Times,serif" font-size="14.00">Move(E)</text>
</g>
<!-- 3&#45;&gt;6 -->
<g id="edge16" class="edge">
<title>3&#45;&gt;6</title>
<path fill="none" stroke="black" d="M687.02,-265.41C687.02,-253.64 687.02,-237.73 687.02,-224.11"/>
<polygon fill="black" stroke="black" points="690.52,-224.35 687.02,-214.35 683.52,-224.35 690.52,-224.35"/>
<text text-anchor="middle" x="711.77" y="-234.2" font-family="Times,serif" font-size="14.00">Move(E)</text>
</g>
</g>
</svg>
